<?xml version="1.0" encoding="utf-8"?>
<!-- Generator: Adobe Illustrator 28.0.0, SVG Export Plug-In . SVG Version: 6.00 Build 0)  -->
<svg version="1.1" id="Layer_1" xmlns:serif="http://www.serif.com/"
	 xmlns="http://www.w3.org/2000/svg" xmlns:xlink="http://www.w3.org/1999/xlink" x="0px" y="0px" viewBox="0 0 800 800"
	 style="enable-background:new 0 0 800 800;" xml:space="preserve">
<style type="text/css">
	.st0{fill-rule:evenodd;clip-rule:evenodd;fill:#673AB7;}
</style>
<g id="Layer1">
	<path class="st0" d="M400,50C206.8,50,50,206.8,50,400s156.8,350,350,350s350-156.8,350-350S593.2,50,400,50z M231.8,308.6l3.8,6.5
		l155.7,269.8l21.6,12.5l-21.5-12.3l3.7,6.5c11.9,20.6,34.5,34.6,63.9,37.1c24.8,2,52.9-4.6,78-19.1c28-16.2,53-30.6,53-30.6
		c12-6.9,16-22.2,9.1-34.1l-51.9-89.9c-6.9-12-22.2-16.1-34.1-9.1l-21.6,12.5l-96.1-166.6l21.6-12.5c12-6.9,16.1-22.2,9.1-34.1
		l-51.9-89.9c-6.9-12-22.2-16.1-34.2-9.2c0,0-24.9,14.4-52.9,30.6c-25,14.4-44.9,35.5-55.5,58c-12.6,26.7-11.7,53.3,0.1,73.9
		L231.8,308.6L231.8,308.6z M434.7,560.1L275,283.4c-4.4-7.7-2.9-17.5,1.8-27.5c6.7-14.1,19.5-27,35.3-36.1l31.3-18.1l26.9,46.6
		l-21.7,12.5c-11.9,6.9-16,22.2-9.1,34.1l121.2,209.8c6.9,12,22.2,16.1,34.1,9.1l21.7-12.5l26.9,46.6L512,566.3
		c-15.7,9.1-33.3,13.8-48.9,12.6c-10.8-0.9-19.9-4.4-24.4-11.8L434.7,560.1L434.7,560.1z"/>
</g>
</svg>
